<?xml version="1.0" encoding="utf-8"?>
<!-- Generator: Adobe Illustrator 25.0.1, SVG Export Plug-In . SVG Version: 6.00 Build 0)  -->
<svg version="1.0" id="katman_1" xmlns="http://www.w3.org/2000/svg" xmlns:xlink="http://www.w3.org/1999/xlink" x="0px" y="0px"
	 viewBox="0 0 800 600" style="enable-background:new 0 0 800 600;" xml:space="preserve">
<style type="text/css">
	.st0{fill:#00447F;}
	.st1{fill:#2F7DC1;}
	.st2{fill:#FFFFFF;}
</style>
<path class="st0" d="M534.3,169.4h-53.6c-3.3,0-3.3-3.3-6.7-3.3c-10-50.2-50.2-83.7-100.5-83.7s-90.4,33.5-103.8,80.4
	c-3.3,0-3.3,3.3-6.7,3.3h-53.6l-26.8,301.5h381.8L534.3,169.4z M299.8,166c10-33.5,40.2-56.9,73.7-56.9s63.6,23.4,73.7,56.9l0,0
	H299.8L299.8,166"/>
<polygon class="st1" points="618,517.7 236.2,517.7 266.3,219.6 591.2,219.6 "/>
<path class="st2" d="M547.7,310c0-13.4-13.4-26.8-30.1-26.8c-16.7,0-26.8,13.4-26.8,30.1c0,10,3.3,16.7,10,23.4
	c-10,33.5-40.2,56.9-73.7,56.9s-63.6-26.8-73.7-60.3c6.7-6.7,13.4-13.4,13.4-23.4c0-13.4-13.4-26.8-30.1-26.8s-26.8,13.4-26.8,26.8
	c0,10,6.7,20.1,16.7,26.8c10,46.9,50.2,80.4,100.5,80.4s90.4-33.5,103.8-80.4C541,333.5,547.7,323.4,547.7,310"/>
</svg>
